<svg width="50" height="50" viewBox="0 0 41 41" fill="none" xmlns="http://www.w3.org/2000/svg">
<circle cx="20.5" cy="20.5" r="20.5" fill="#F4FAFF"/>
<path d="M32.3669 14.1299H31.4369C31.2657 14.1299 31.127 14.2687 31.127 14.4399V17.643C31.127 17.8142 31.2657 17.953 31.4369 17.953H32.3669C32.5381 17.953 32.6769 17.8142 32.6769 17.643V14.4399C32.6769 14.2687 32.5381 14.1299 32.3669 14.1299Z" fill="#FF8E01"/>
<path d="M32.3667 14.1299H31.5918C31.674 14.1299 31.7529 14.1625 31.811 14.2207C31.8691 14.2788 31.9018 14.3577 31.9018 14.4399V17.643C31.9018 17.7252 31.8691 17.804 31.811 17.8622C31.7529 17.9203 31.674 17.953 31.5918 17.953H32.3667C32.449 17.953 32.5278 17.9203 32.5859 17.8622C32.6441 17.804 32.6767 17.7252 32.6767 17.643V14.4399C32.6767 14.3577 32.6441 14.2788 32.5859 14.2207C32.5278 14.1625 32.449 14.1299 32.3667 14.1299Z" fill="#FF8E01"/>
<path d="M7.31086 17.953H8.2408C8.412 17.953 8.55078 17.8142 8.55078 17.643V14.4399C8.55078 14.2687 8.412 14.1299 8.2408 14.1299H7.31086C7.13966 14.1299 7.00088 14.2687 7.00088 14.4399V17.643C7.00088 17.8142 7.13966 17.953 7.31086 17.953Z" fill="#FF8E01"/>
<path d="M8.23979 14.1299H7.46484C7.54706 14.1299 7.6259 14.1625 7.68403 14.2207C7.74217 14.2788 7.77482 14.3577 7.77482 14.4399V17.643C7.77482 17.7252 7.74217 17.804 7.68403 17.8622C7.6259 17.9203 7.54706 17.953 7.46484 17.953H8.23979C8.32201 17.953 8.40085 17.9203 8.45898 17.8622C8.51711 17.804 8.54977 17.7252 8.54977 17.643V14.4399C8.54977 14.3577 8.51711 14.2788 8.45898 14.2207C8.40085 14.1625 8.32201 14.1299 8.23979 14.1299Z" fill="#FF8E01"/>
<path d="M27.7962 7.00037H11.8839C11.0279 7.00037 10.334 7.69428 10.334 8.55027V27.614C10.334 28.47 11.0279 29.1639 11.8839 29.1639H27.7962C28.6522 29.1639 29.3461 28.47 29.3461 27.614V8.55027C29.3461 7.69428 28.6522 7.00037 27.7962 7.00037Z" fill="#FF8E01"/>
<path d="M27.7956 7.00037H25.4707C25.8818 7.00037 26.276 7.16366 26.5666 7.45432C26.8573 7.74498 27.0206 8.13921 27.0206 8.55027V27.614C27.0206 28.0251 26.8573 28.4193 26.5666 28.71C26.276 29.0006 25.8818 29.1639 25.4707 29.1639H27.7956C28.2066 29.1639 28.6008 29.0006 28.8915 28.71C29.1822 28.4193 29.3455 28.0251 29.3455 27.614V8.55027C29.3455 8.13921 29.1822 7.74498 28.8915 7.45432C28.6008 7.16366 28.2066 7.00037 27.7956 7.00037Z" fill="#FF8E01"/>
<path d="M29.3461 11.0302V20.0712H10.334V11.0302H29.3461Z" fill="#83C9EE"/>
<path d="M27.0195 11.0302H29.3444V20.0712H27.0195V11.0302Z" fill="#52BBE9"/>
<path d="M20.2261 11.0302V20.0712C20.2261 20.174 20.1853 20.2726 20.1126 20.3452C20.04 20.4179 19.9414 20.4587 19.8386 20.4587C19.7359 20.4587 19.6373 20.4179 19.5647 20.3452C19.492 20.2726 19.4512 20.174 19.4512 20.0712V11.0302H20.2261Z" fill="#A8D9F5"/>
<path d="M27.7962 23.171H11.8839C11.4728 23.171 11.0786 23.0077 10.7879 22.717C10.4973 22.4263 10.334 22.0321 10.334 21.6211V20.0712H29.3461V21.6211C29.3461 22.0321 29.1828 22.4263 28.8921 22.717C28.6015 23.0077 28.2072 23.171 27.7962 23.171Z" fill="#FF8E01"/>
<path d="M26.3489 27.6141C27.1478 27.6141 27.7955 26.9664 27.7955 26.1675C27.7955 25.3686 27.1478 24.7209 26.3489 24.7209C25.55 24.7209 24.9023 25.3686 24.9023 26.1675C24.9023 26.9664 25.55 27.6141 26.3489 27.6141Z" fill="#FDDD5A"/>
<path d="M26.3484 24.7209C26.2175 24.721 26.0871 24.7388 25.9609 24.7738C26.2655 24.8585 26.5339 25.0406 26.7252 25.2923C26.9165 25.544 27.02 25.8514 27.02 26.1675C27.02 26.4836 26.9165 26.791 26.7252 27.0427C26.5339 27.2944 26.2655 27.4765 25.9609 27.5612C26.1599 27.6165 26.3684 27.6286 26.5724 27.5967C26.7764 27.5647 26.9712 27.4895 27.1437 27.376C27.3162 27.2625 27.4624 27.1133 27.5725 26.9386C27.6826 26.7639 27.754 26.5677 27.7819 26.3631C27.8098 26.1585 27.7936 25.9502 27.7343 25.7524C27.6751 25.5546 27.5741 25.3718 27.4383 25.2162C27.3025 25.0607 27.135 24.936 26.947 24.8505C26.759 24.7651 26.5549 24.7209 26.3484 24.7209Z" fill="#FED030"/>
<path d="M13.3294 27.6141C14.1283 27.6141 14.776 26.9664 14.776 26.1675C14.776 25.3686 14.1283 24.7209 13.3294 24.7209C12.5305 24.7209 11.8828 25.3686 11.8828 26.1675C11.8828 26.9664 12.5305 27.6141 13.3294 27.6141Z" fill="#FDDD5A"/>
<path d="M13.3289 24.7209C13.1979 24.721 13.0676 24.7388 12.9414 24.7738C13.246 24.8585 13.5144 25.0406 13.7057 25.2923C13.8969 25.544 14.0005 25.8514 14.0005 26.1675C14.0005 26.4836 13.8969 26.791 13.7057 27.0427C13.5144 27.2944 13.246 27.4765 12.9414 27.5612C13.1404 27.6165 13.3488 27.6286 13.5528 27.5967C13.7569 27.5647 13.9517 27.4895 14.1242 27.376C14.2967 27.2625 14.4429 27.1133 14.553 26.9386C14.663 26.7639 14.7344 26.5677 14.7623 26.3631C14.7902 26.1585 14.774 25.9502 14.7148 25.7524C14.6555 25.5546 14.5546 25.3718 14.4188 25.2162C14.283 25.0607 14.1155 24.936 13.9275 24.8505C13.7395 24.7651 13.5354 24.7209 13.3289 24.7209Z" fill="#FED030"/>
<path d="M11.9355 29.1639H15.3453V31.9021C15.3453 32.1076 15.2637 32.3047 15.1183 32.4501C14.973 32.5954 14.7759 32.677 14.5704 32.677H12.7105C12.505 32.677 12.3079 32.5954 12.1625 32.4501C12.0172 32.3047 11.9355 32.1076 11.9355 31.9021V29.1639Z" fill="#787681"/>
<path d="M13.7945 29.1639V31.9021C13.7945 32.1076 13.7128 32.3047 13.5675 32.4501C13.4222 32.5954 13.2251 32.677 13.0195 32.677H14.5694C14.775 32.677 14.9721 32.5954 15.1174 32.4501C15.2627 32.3047 15.3444 32.1076 15.3444 31.9021V29.1639H13.7945Z" fill="#57565C"/>
<path d="M24.334 29.1639H27.7438V31.9021C27.7438 32.1076 27.6621 32.3047 27.5168 32.4501C27.3715 32.5954 27.1743 32.677 26.9688 32.677H25.1089C24.9034 32.677 24.7063 32.5954 24.561 32.4501C24.4156 32.3047 24.334 32.1076 24.334 31.9021V29.1639Z" fill="#787681"/>
<path d="M26.1929 29.1639V31.9021C26.1929 32.1076 26.1113 32.3047 25.9659 32.4501C25.8206 32.5954 25.6235 32.677 25.418 32.677H26.9679C27.1734 32.677 27.3705 32.5954 27.5158 32.4501C27.6612 32.3047 27.7428 32.1076 27.7428 31.9021V29.1639H26.1929Z" fill="#57565C"/>
<path d="M32.6774 33.0645H7.00076C6.89799 33.0645 6.79944 33.0237 6.72677 32.951C6.6541 32.8783 6.61328 32.7798 6.61328 32.677C6.61328 32.5743 6.6541 32.4757 6.72677 32.403C6.79944 32.3304 6.89799 32.2896 7.00076 32.2896H32.6774C32.7802 32.2896 32.8787 32.3304 32.9514 32.403C33.0241 32.4757 33.0649 32.5743 33.0649 32.677C33.0649 32.7798 33.0241 32.8783 32.9514 32.951C32.8787 33.0237 32.7802 33.0645 32.6774 33.0645Z" fill="#787681"/>
<path d="M22.5774 24.7209H17.1011C16.6731 24.7209 16.3262 25.0679 16.3262 25.4959V26.8391C16.3262 27.2671 16.6731 27.6141 17.1011 27.6141H22.5774C23.0054 27.6141 23.3524 27.2671 23.3524 26.8391V25.4959C23.3524 25.0679 23.0054 24.7209 22.5774 24.7209Z" fill="white"/>
<path d="M22.5768 24.7209H20.252C20.4575 24.7209 20.6546 24.8026 20.7999 24.9479C20.9453 25.0933 21.0269 25.2904 21.0269 25.4959V26.8391C21.0269 27.0447 20.9453 27.2418 20.7999 27.3871C20.6546 27.5324 20.4575 27.6141 20.252 27.6141H22.5768C22.7823 27.6141 22.9794 27.5324 23.1248 27.3871C23.2701 27.2418 23.3518 27.0447 23.3518 26.8391V25.4959C23.3518 25.2904 23.2701 25.0933 23.1248 24.9479C22.9794 24.8026 22.7823 24.7209 22.5768 24.7209Z" fill="#E1E1E3"/>
<path d="M27.0203 8.62778C26.9437 8.62778 26.8687 8.65051 26.805 8.69309C26.7413 8.73566 26.6916 8.79618 26.6623 8.86698C26.633 8.93778 26.6253 9.01569 26.6403 9.09085C26.6552 9.16601 26.6921 9.23506 26.7463 9.28924C26.8005 9.34343 26.8695 9.38034 26.9447 9.39529C27.0199 9.41024 27.0978 9.40257 27.1686 9.37324C27.2394 9.34391 27.2999 9.29425 27.3425 9.23053C27.385 9.16681 27.4078 9.09189 27.4078 9.01526C27.4078 8.91249 27.3669 8.81394 27.2943 8.74127C27.2216 8.66861 27.1231 8.62778 27.0203 8.62778ZM31.4375 13.7425C31.2526 13.7427 31.0753 13.8162 30.9446 13.947C30.8138 14.0777 30.7402 14.255 30.74 14.4399V17.643C30.7402 17.8279 30.8138 18.0052 30.9446 18.136C31.0753 18.2667 31.2526 18.3403 31.4375 18.3405H32.3674C32.5524 18.3403 32.7296 18.2667 32.8604 18.136C32.9911 18.0052 33.0647 17.8279 33.0649 17.643V14.4399C33.0647 14.255 32.9911 14.0777 32.8604 13.947C32.7296 13.8162 32.5524 13.7427 32.3674 13.7425H32.2899V12.9417C32.2897 12.7431 32.2107 12.5527 32.0703 12.4122C31.9298 12.2718 31.7394 12.1928 31.5408 12.1926H29.7326V8.55029C29.732 8.03664 29.5277 7.5442 29.1645 7.18099C28.8013 6.81779 28.3089 6.61349 27.7952 6.61292H11.8829C11.3693 6.61349 10.8768 6.81779 10.5136 7.18099C10.1504 7.5442 9.94614 8.03664 9.94556 8.55029V12.1926H8.13735C7.93874 12.1928 7.74834 12.2718 7.6079 12.4122C7.46746 12.5527 7.38846 12.7431 7.38823 12.9417V13.7425H7.31074C7.12582 13.7427 6.94854 13.8162 6.81779 13.947C6.68703 14.0777 6.61349 14.255 6.61328 14.4399V17.643C6.61349 17.8279 6.68703 18.0052 6.81779 18.136C6.94854 18.2667 7.12582 18.3403 7.31074 18.3405H8.24068C8.42559 18.3403 8.60287 18.2667 8.73362 18.136C8.86438 18.0052 8.93792 17.8279 8.93813 17.643V14.4399C8.93792 14.255 8.86438 14.0777 8.73362 13.947C8.60287 13.8162 8.42559 13.7427 8.24068 13.7425H8.16318V12.9675H9.94556V27.614C9.94619 28.0694 10.107 28.5101 10.3998 28.8588C10.6926 29.2076 11.0987 29.4423 11.5471 29.5217V31.9021C11.5471 32.0341 11.5696 32.1652 11.6138 32.2896H7.00076C6.89799 32.2896 6.79944 32.3304 6.72677 32.4031C6.6541 32.4757 6.61328 32.5743 6.61328 32.6771C6.61328 32.7798 6.6541 32.8784 6.72677 32.951C6.79944 33.0237 6.89799 33.0645 7.00076 33.0645H32.6774C32.7802 33.0645 32.8787 33.0237 32.9514 32.951C33.0241 32.8784 33.0649 32.7798 33.0649 32.6771C33.0649 32.5743 33.0241 32.4757 32.9514 32.4031C32.8787 32.3304 32.7802 32.2896 32.6774 32.2896H28.0644C28.1086 32.1652 28.1311 32.0341 28.131 31.9021V29.5217C28.5794 29.4423 28.9856 29.2076 29.2784 28.8588C29.5712 28.5101 29.732 28.0694 29.7326 27.614V12.9675H31.515V13.7425H31.4375ZM8.16318 17.5655H7.38823V14.5174H8.16318V17.5655ZM10.7205 11.4176H19.4516V19.6837H10.7205V11.4176ZM14.9569 31.9021C14.9568 32.0048 14.9159 32.1033 14.8433 32.176C14.7707 32.2486 14.6722 32.2895 14.5694 32.2896H12.7096C12.6068 32.2895 12.5083 32.2486 12.4357 32.176C12.363 32.1033 12.3222 32.0048 12.3221 31.9021V29.5514H14.9569V31.9021ZM15.6652 32.2896C15.7094 32.1652 15.7319 32.0341 15.7319 31.9021V29.5514H23.9463V31.9021C23.9463 32.0341 23.9688 32.1652 24.013 32.2896H15.6652ZM27.3561 31.9021C27.356 32.0048 27.3151 32.1033 27.2425 32.176C27.1698 32.2486 27.0714 32.2895 26.9686 32.2896H25.1087C25.006 32.2895 24.9075 32.2486 24.8349 32.176C24.7622 32.1033 24.7214 32.0048 24.7213 31.9021V29.5514H27.3561V31.9021ZM28.9577 27.614C28.9573 27.9222 28.8347 28.2177 28.6168 28.4356C28.3989 28.6535 28.1034 28.7761 27.7952 28.7765H11.8829C11.5748 28.7761 11.2793 28.6535 11.0614 28.4356C10.8435 28.2177 10.7209 27.9222 10.7205 27.614V23.17C11.0554 23.4225 11.4635 23.5589 11.8829 23.5585H27.7952C28.2147 23.5589 28.6228 23.4225 28.9577 23.17V27.614ZM28.9577 21.6211C28.9573 21.9293 28.8347 22.2248 28.6168 22.4427C28.3989 22.6606 28.1034 22.7832 27.7952 22.7835H11.8829C11.5748 22.7832 11.2793 22.6606 11.0614 22.4427C10.8435 22.2248 10.7209 21.9293 10.7205 21.6211V20.4587H28.9577V21.6211ZM28.9577 19.6837H20.2266V11.4176H28.9577V19.6837ZM28.9577 10.6427H10.7205V8.55029C10.7209 8.2421 10.8435 7.94664 11.0614 7.72872C11.2793 7.5108 11.5748 7.38822 11.8829 7.38786H27.7952C28.1034 7.38822 28.3989 7.5108 28.6168 7.72872C28.8347 7.94664 28.9573 8.2421 28.9577 8.55029V10.6427ZM32.2899 14.5174V17.5655H31.515V14.5174H32.2899ZM22.5772 24.3334H17.1009C16.7927 24.3338 16.4973 24.4564 16.2794 24.6743C16.0614 24.8922 15.9389 25.1877 15.9385 25.4959V26.8391C15.9389 27.1473 16.0614 27.4427 16.2794 27.6607C16.4973 27.8786 16.7927 28.0012 17.1009 28.0015H22.5772C22.8854 28.0012 23.1809 27.8786 23.3988 27.6607C23.6167 27.4427 23.7393 27.1473 23.7397 26.8391V25.4959C23.7393 25.1877 23.6167 24.8922 23.3988 24.6743C23.1809 24.4564 22.8854 24.3338 22.5772 24.3334ZM22.9647 26.8391C22.9646 26.9418 22.9237 27.0403 22.8511 27.113C22.7785 27.1856 22.68 27.2265 22.5772 27.2266H17.1009C16.9982 27.2265 16.8997 27.1856 16.8271 27.113C16.7544 27.0403 16.7136 26.9418 16.7135 26.8391V25.4959C16.7136 25.3931 16.7544 25.2946 16.8271 25.222C16.8997 25.1493 16.9982 25.1085 17.1009 25.1084H22.5772C22.68 25.1085 22.7785 25.1493 22.8511 25.222C22.9237 25.2946 22.9646 25.3931 22.9647 25.4959V26.8391ZM13.3295 24.3334C12.9668 24.3334 12.6122 24.441 12.3106 24.6425C12.009 24.844 11.7739 25.1305 11.6351 25.4656C11.4963 25.8007 11.4599 26.1695 11.5307 26.5253C11.6015 26.8811 11.7761 27.2078 12.0326 27.4643C12.2891 27.7208 12.6159 27.8955 12.9717 27.9663C13.3275 28.0371 13.6962 28.0007 14.0314 27.8619C14.3665 27.7231 14.6529 27.488 14.8545 27.1864C15.056 26.8848 15.1636 26.5302 15.1636 26.1675C15.163 25.6812 14.9696 25.215 14.6258 24.8712C14.2819 24.5274 13.8158 24.334 13.3295 24.3334ZM13.3295 27.2266C13.12 27.2266 12.9153 27.1645 12.7411 27.0481C12.5669 26.9317 12.4312 26.7663 12.351 26.5728C12.2709 26.3792 12.2499 26.1663 12.2908 25.9609C12.3316 25.7554 12.4325 25.5667 12.5806 25.4186C12.7287 25.2705 12.9174 25.1696 13.1229 25.1287C13.3283 25.0879 13.5413 25.1088 13.7348 25.189C13.9283 25.2692 14.0937 25.4049 14.2101 25.5791C14.3265 25.7532 14.3886 25.958 14.3886 26.1675C14.3883 26.4483 14.2766 26.7175 14.0781 26.916C13.8795 27.1146 13.6103 27.2263 13.3295 27.2266ZM26.3487 24.3334C25.9859 24.3334 25.6313 24.441 25.3297 24.6425C25.0281 24.844 24.793 25.1305 24.6542 25.4656C24.5154 25.8007 24.4791 26.1695 24.5499 26.5253C24.6206 26.8811 24.7953 27.2078 25.0518 27.4643C25.3083 27.7208 25.6351 27.8955 25.9909 27.9663C26.3466 28.0371 26.7154 28.0007 27.0505 27.8619C27.3857 27.7231 27.6721 27.488 27.8736 27.1864C28.0751 26.8848 28.1827 26.5302 28.1827 26.1675C28.1822 25.6812 27.9888 25.215 27.6449 24.8712C27.3011 24.5274 26.8349 24.334 26.3487 24.3334ZM26.3487 27.2266C26.1392 27.2266 25.9344 27.1645 25.7603 27.0481C25.5861 26.9317 25.4503 26.7663 25.3702 26.5728C25.29 26.3792 25.2691 26.1663 25.3099 25.9609C25.3508 25.7554 25.4517 25.5667 25.5998 25.4186C25.7479 25.2705 25.9366 25.1696 26.142 25.1287C26.3475 25.0879 26.5604 25.1088 26.754 25.189C26.9475 25.2692 27.1129 25.4049 27.2293 25.5791C27.3456 25.7532 27.4078 25.958 27.4078 26.1675C27.4074 26.4483 27.2958 26.7175 27.0972 26.916C26.8987 27.1146 26.6295 27.2263 26.3487 27.2266ZM12.6307 8.62778C12.554 8.62778 12.4791 8.65051 12.4154 8.69309C12.3517 8.73566 12.302 8.79618 12.2727 8.86698C12.2434 8.93778 12.2357 9.01569 12.2506 9.09085C12.2656 9.16601 12.3025 9.23506 12.3567 9.28924C12.4109 9.34343 12.4799 9.38034 12.5551 9.39529C12.6302 9.41024 12.7081 9.40257 12.7789 9.37324C12.8497 9.34391 12.9103 9.29425 12.9528 9.23053C12.9954 9.16681 13.0181 9.09189 13.0181 9.01526C13.0181 8.91249 12.9773 8.81394 12.9046 8.74127C12.832 8.66861 12.7334 8.62778 12.6307 8.62778ZM24.9021 8.62778H14.7761C14.6733 8.62778 14.5748 8.66861 14.5021 8.74127C14.4294 8.81394 14.3886 8.91249 14.3886 9.01526C14.3886 9.11802 14.4294 9.21658 14.5021 9.28924C14.5748 9.36191 14.6733 9.40273 14.7761 9.40273H24.9021C25.0049 9.40273 25.1034 9.36191 25.1761 9.28924C25.2487 9.21658 25.2896 9.11802 25.2896 9.01526C25.2896 8.91249 25.2487 8.81394 25.1761 8.74127C25.1034 8.66861 25.0049 8.62778 24.9021 8.62778Z" fill="#3C3B41"/>
</svg>
