<svg width="30" height="30" viewBox="0 0 389 389" fill="none" xmlns="http://www.w3.org/2000/svg">
<g clip-path="url(#clip0_309_123)">
<path d="M194.496 388.992C301.913 388.992 388.992 301.913 388.992 194.496C388.992 87.0788 301.913 0 194.496 0C87.0788 0 0 87.0788 0 194.496C0 301.913 87.0788 388.992 194.496 388.992Z" fill="#FF8E01"/>
<path d="M243.533 303.92C256.878 303.92 267.696 293.102 267.696 279.757C267.696 266.412 256.878 255.594 243.533 255.594C230.188 255.594 219.37 266.412 219.37 279.757C219.37 293.102 230.188 303.92 243.533 303.92Z" fill="white"/>
<path d="M295.274 117.633C294.439 116.319 293.596 115.013 292.761 113.707C289.826 110.235 286.891 106.771 283.957 103.299C279.427 99.5047 275.178 95.2887 270.317 91.9821C237.036 69.3317 202.019 66.579 165.728 83.9635C144.591 94.0901 130.339 111.276 119.46 131.554C108.416 152.146 101.109 174.119 95.4873 196.703C88.9402 223.024 84.7573 249.733 82.5914 276.765C82.4922 278.046 82.4509 279.336 82.3848 280.625C83.0626 281.427 83.7405 282.229 84.4183 283.031C101.158 284.8 117.939 285.503 134.745 285.403C139.515 271.995 152.303 262.397 167.349 262.397C180.592 262.397 192.09 269.837 197.91 280.766C201.688 280.162 205.449 279.493 209.21 278.732C211.145 261.455 225.793 248.03 243.583 248.03C252.651 248.03 260.901 251.527 267.076 257.231C286.693 244.385 300.168 226.678 307.169 204.35C316.792 173.689 312.526 144.715 295.274 117.633ZM240.938 209.012C221.676 225.123 192.462 222.536 176.276 203.283C159.851 183.741 162.314 154.585 181.774 138.234C201.39 121.75 230.373 124.321 246.98 144.012C263.282 163.356 260.571 192.595 240.938 209.012Z" fill="white"/>
<path d="M166.34 318.37C179.685 318.37 190.503 307.552 190.503 294.207C190.503 280.862 179.685 270.044 166.34 270.044C152.995 270.044 142.177 280.862 142.177 294.207C142.177 307.552 152.995 318.37 166.34 318.37Z" fill="white"/>
</g>
<defs>
<clipPath id="clip0_309_123">
<rect width="389" height="389" fill="white"/>
</clipPath>
</defs>
</svg>
